<svg width="1512" height="946" viewBox="0 0 1512 946" fill="none" xmlns="http://www.w3.org/2000/svg">
<g clip-path="url(#clip0_122_4393)">
<rect width="1512.2" height="945.125" fill="url(#paint0_linear_122_4393)" fill-opacity="0.8"/>
<g opacity="0.7">
<g opacity="0.47">
<path d="M359.439 760.162L-124.862 8.84424L-123.377 9.71923L351.701 289.225V289.459L359.439 760.162ZM-122.319 11.3268L358.574 757.324L350.872 289.724L-122.319 11.3268Z" fill="#006599"/>
<path d="M358.629 760.899L350.861 289.24L351.055 289.118L594.253 132.259L593.816 133.419L358.629 760.899ZM351.691 289.683L359.377 756.555L592.615 134.289L351.691 289.683Z" fill="#6CBEFF"/>
<path d="M576.451 662.645L576.313 662.371L436.578 389.829L437.789 390.531L826.013 616.321L576.451 662.645ZM438.588 391.945L576.903 661.725L823.688 615.94L438.588 391.945Z" fill="#BFE5FF"/>
<path d="M358.564 758.9L254.154 388.415L577.441 662.3L576.84 662.559L358.564 758.9ZM255.675 390.786L359.093 757.781L575.909 662.086L255.675 390.786Z" fill="#006599"/>
<path d="M359.55 759.378L88.0205 558.19L88.3562 557.854L255.14 388.807L255.333 389.488L359.55 759.378ZM89.2465 558.093L358.105 757.293L254.708 390.389L89.2465 558.093Z" fill="#006599"/>
<path d="M434.354 391.62L852.119 240.393L852.302 240.555L963.091 339.15L434.354 391.62ZM851.956 241.334L440.809 390.155L961.148 338.52L851.956 241.334Z" fill="#006599"/>
<path d="M1469.78 715.527L1468.94 714.906L961.238 338.692L1374.69 202.417L1374.78 202.879L1469.78 715.527ZM963.019 338.977L1468.62 713.629L1374.06 203.49L963.019 338.977Z" fill="#6CBEFF"/>
<path d="M801.491 462.774L800.871 461.497L728.424 313.119L815.415 334.841L815.379 335.197L801.491 462.774ZM729.935 314.34L800.983 459.833L814.525 335.436L729.935 314.34Z" fill="#006599"/>
<path d="M1056.63 364.504L1055.9 364.418L812.949 335.334L1015.42 275.407L1015.57 275.733L1056.63 364.504ZM817.019 334.978L1055.31 363.512L1015 276.399L817.019 334.978Z" fill="#006599"/>
<path d="M815.137 335.844L814.694 335.437L592.455 133.017L593.34 132.905L908.624 93.7998L908.375 94.4408L815.137 335.844ZM594.353 133.612L814.832 334.429L907.388 94.7816L594.353 133.612Z" fill="#1D5E8C"/>
<path d="M699.741 479.344L699.599 479.237L603.217 405.727L803.098 461.411L699.741 479.344ZM607.109 407.66L699.955 478.479L799.374 461.223L607.109 407.66Z" fill="#006599"/>
<path d="M744.642 693.687L743.863 693.438L800.876 461.07L855.309 422.438L854.8 423.74L744.642 693.687ZM801.618 461.564L746.01 688.214L853.497 424.737L801.618 461.564Z" fill="#006599"/>
<path d="M1469.05 714.001L853.426 423.593L854.209 423.217L1193.21 259.139L1193.41 259.455L1469.05 714.001ZM855.349 423.578L1466.93 712.113L1192.9 260.197L855.349 423.578Z" fill="#BFE5FF"/>
<path d="M438.428 391.294H437.579L254.587 390.002L254.516 389.687L177.506 58.688L438.428 391.294ZM255.243 389.178L436.734 390.46L179.144 62.1015L255.243 389.178Z" fill="#1D5E8C"/>
<path d="M88.4712 558.881L88.2422 558.291L-124.688 8.40088L255.494 389.595L255.209 389.885L88.4712 558.881ZM-122.515 11.7432L88.7764 557.401L254.339 389.6L-122.515 11.7432Z" fill="#6CBEFF"/>
<path d="M961.755 339.913L954.994 183.273L955.243 183.156L1183 74.5342L961.755 339.913ZM955.839 183.782L962.482 337.756L1179.97 76.9048L955.839 183.782Z" fill="#1D5E8C"/>
<path d="M1392.96 455.708L1392.4 455.555L960.697 338.896L961.989 338.468L1374.28 201.887L1374.32 202.396L1392.96 455.708ZM963.531 338.794L1392.04 454.614L1373.56 202.976L963.531 338.794Z" fill="#006599"/>
<path d="M604.787 407.486L604.752 406.708L592.965 132L729.749 313.836L604.787 407.486ZM593.896 134.579L605.54 405.899L728.6 313.648L593.896 134.579Z" fill="#006599"/>
<path d="M1068.72 759.26L1068.34 759.179L743.412 693.783L743.977 693.239L1193.81 258.375L1068.72 759.26ZM745.106 693.285L1068.14 758.299L1192.31 260.959L745.106 693.285Z" fill="#006599"/>
<path d="M744.779 694.048L744.178 693.936L575.98 662.472L576.332 661.963L700.047 477.878L744.779 694.048ZM577.359 661.897L743.71 693.021L699.62 479.948L577.359 661.897Z" fill="#006599"/>
<path d="M853.33 241.843L851.891 241.242L592.484 133.394L593.176 132.972L712.273 60.9521L712.496 61.237L853.33 241.843ZM594.295 133.262L850.766 239.884L712.074 62.0306L594.295 133.262Z" fill="#006599"/>
<path d="M1015.44 277.035L954.906 183.528L955.049 183.309L1052.29 31.9902L1015.44 277.035ZM955.898 183.528L1014.96 274.797L1050.93 35.6988L955.898 183.528Z" fill="#006599"/>
<path d="M1079.75 406.948L1079.1 406.439L1192.73 259.419L1293.62 134.783L1294.26 135.291L1079.75 406.948ZM1251.29 188.361L1193.38 259.928L1128.14 344.335L1251.29 188.361Z" fill="#006599"/>
<path d="M1374.46 203.577L1293.1 134.849L1293.81 134.625L1455.81 82.7354L1455.15 83.7172L1374.46 203.577ZM1294.77 135.179L1374.29 202.33L1453.81 84.231L1294.77 135.179Z" fill="#1D5E8C"/>
<path d="M1393.3 455.988L1392.52 455.23L1192.28 259.485L1192.94 259.276L1374.39 202.05L1393.3 455.988ZM1193.84 259.856L1392.32 453.867L1373.64 203.134L1193.84 259.856Z" fill="#006599"/>
<path d="M1392.19 456.44L1392.1 455.189L1373.47 201.999L1547.71 207.33L1392.19 456.44ZM1374.35 202.843L1392.82 453.866L1546.26 208.104L1374.35 202.843Z" fill="#006599"/>
<path d="M1470.48 717.491L1191.01 257.1L1392.98 455.104L1393.01 455.205L1470.48 717.491ZM1195.1 262.248L1467.9 711.666L1392.25 455.531L1195.1 262.248Z" fill="#006599"/>
<path d="M957.186 455.902L854.318 424.468L854.242 424.295L813.859 333.656L957.186 455.902ZM854.933 423.791L953.666 453.963L816.082 336.637L854.933 423.791Z" fill="#006599"/>
<path d="M954.961 455.708L961.752 338.051L962.363 338.509L1044.36 399.555L1043.85 399.871L954.961 455.708ZM962.51 339.618L955.897 454.167L1042.94 399.489L962.51 339.618Z" fill="#006599"/>
<path d="M729.073 314.264L728.854 313.974L592.166 132.864L956.267 182.668L729.073 314.264ZM594.013 133.948L729.291 313.19L953.795 183.161L594.013 133.948Z" fill="#1D5E8C"/>
<path d="M824.566 616.973L824.444 616.184L800.707 460.567L801.429 460.954L919.615 524.131L919.218 524.523L824.566 616.973ZM801.755 462.063L825.156 615.269L918.252 524.33L801.755 462.063Z" fill="#006599"/>
<path d="M1070.15 762.248L1068.07 759.002L853.438 422.86L955.731 454.604L955.802 454.793L1070.15 762.248ZM855.335 424.31L1066.69 755.314L955.1 455.271L855.335 424.31Z" fill="#6CBEFF"/>
<path d="M1068.01 758.793L1055.5 362.297L1079.84 406.555V406.672L1068.83 758.793H1068.01ZM1056.43 365.705L1068.42 745.719L1079.01 406.795L1056.43 365.705Z" fill="#6CBEFF"/>
<path d="M1469.28 714.133L954.396 454.885L1079.52 406.226L1079.7 406.368L1469.28 714.133ZM956.436 454.981L1462.32 709.794L1079.36 407.162L956.436 454.981Z" fill="#006599"/>
<path d="M799.848 461.782L854.545 423.684L854.733 423.74L957.836 455.25L799.848 461.782ZM854.688 424.584L802.625 460.846L952.998 454.624L854.688 424.584Z" fill="#006599"/>
<path d="M700.17 479.45L699.717 479.298L436.154 390.841L437.477 390.49L729.696 313.165L700.17 479.45ZM439.008 390.933L699.529 478.372L728.663 314.289L439.008 390.933Z" fill="#1D5E8C"/>
<path d="M1054.98 365.248L1055.61 363.823L1181.77 73.9854L1193.54 262.893L1193.36 263.026L1054.98 365.248ZM1181.18 77.4141L1056.95 362.77L1192.71 262.497L1181.18 77.4141Z" fill="#006599"/>
</g>
<path d="M185.578 66.1622C189.849 61.8908 189.849 54.9656 185.578 50.6943C181.307 46.4229 174.381 46.4229 170.11 50.6943C165.839 54.9656 165.839 61.8908 170.11 66.1622C174.381 70.4335 181.307 70.4335 185.578 66.1622Z" fill="#0094F9"/>
<path d="M366.083 763.007C370.354 758.736 370.354 751.81 366.083 747.539C361.811 743.268 354.886 743.268 350.615 747.539C346.343 751.81 346.343 758.736 350.615 763.007C354.886 767.278 361.811 767.278 366.083 763.007Z" fill="#0A8FE8"/>
<path d="M719.428 68.3516C723.7 64.0803 723.7 57.1551 719.428 52.8837C715.157 48.6124 708.232 48.6124 703.961 52.8837C699.689 57.1551 699.689 64.0803 703.961 68.3516C708.232 72.623 715.157 72.623 719.428 68.3516Z" fill="#0A8FE8"/>
<path d="M918.353 95.2068C919.32 89.2443 915.271 83.626 909.309 82.6582C903.346 81.6903 897.728 85.7393 896.76 91.7019C895.792 97.6644 899.841 103.283 905.804 104.251C911.767 105.218 917.385 101.169 918.353 95.2068Z" fill="#0A8FE8"/>
<path d="M91.2432 566.298C96.8114 563.956 99.4269 557.544 97.0851 551.976C94.7433 546.408 88.331 543.792 82.7628 546.134C77.1946 548.476 74.5791 554.888 76.9209 560.456C79.2627 566.024 85.675 568.64 91.2432 566.298Z" fill="#0A8FE8"/>
<path d="M232.46 554.852C239.296 548.016 239.296 536.932 232.46 530.096C225.624 523.26 214.54 523.26 207.704 530.096C200.868 536.932 200.868 548.016 207.704 554.852C214.54 561.688 225.624 561.688 232.46 554.852Z" fill="#0094F9"/>
<path d="M263.249 397.629C267.52 393.358 267.52 386.432 263.249 382.161C258.977 377.89 252.052 377.89 247.781 382.161C243.509 386.432 243.509 393.358 247.781 397.629C252.052 401.9 258.977 401.9 263.249 397.629Z" fill="#0A8FE8"/>
<path d="M350.689 298C356.73 298 361.627 293.103 361.627 287.062C361.627 281.022 356.73 276.125 350.689 276.125C344.649 276.125 339.752 281.022 339.752 287.062C339.752 293.103 344.649 298 350.689 298Z" fill="#0094F9"/>
<path d="M446.644 393.472C448.032 387.593 444.391 381.702 438.512 380.314C432.633 378.927 426.742 382.568 425.354 388.447C423.967 394.326 427.608 400.217 433.487 401.604C439.366 402.992 445.257 399.351 446.644 393.472Z" fill="#0A8FE8"/>
<path d="M359.214 390.533C360.186 386.417 357.637 382.294 353.522 381.322C349.406 380.351 345.283 382.9 344.311 387.015C343.34 391.131 345.889 395.254 350.004 396.226C354.12 397.197 358.243 394.648 359.214 390.533Z" fill="#0094F9"/>
<path d="M364.599 475.515C365.987 469.636 362.346 463.745 356.467 462.357C350.588 460.97 344.697 464.611 343.309 470.49C341.922 476.369 345.563 482.26 351.442 483.647C357.321 485.035 363.212 481.394 364.599 475.515Z" fill="#0A8FE8"/>
<path d="M445.447 544.2C445.93 541.21 443.898 538.394 440.908 537.911C437.918 537.428 435.102 539.46 434.619 542.45C434.136 545.44 436.168 548.256 439.158 548.739C442.148 549.223 444.964 547.19 445.447 544.2Z" fill="#0094F9"/>
<path d="M472.115 465.379C478.156 465.379 483.053 460.482 483.053 454.442C483.053 448.401 478.156 443.504 472.115 443.504C466.075 443.504 461.178 448.401 461.178 454.442C461.178 460.482 466.075 465.379 472.115 465.379Z" fill="#0A8FE8"/>
<path d="M576.043 668.852C582.084 668.852 586.98 663.955 586.98 657.915C586.98 651.874 582.084 646.977 576.043 646.977C570.002 646.977 565.105 651.874 565.105 657.915C565.105 663.955 570.002 668.852 576.043 668.852Z" fill="#0A8FE8"/>
<path d="M823.277 627.279C829.318 627.279 834.215 622.382 834.215 616.342C834.215 610.301 829.318 605.404 823.277 605.404C817.237 605.404 812.34 610.301 812.34 616.342C812.34 622.382 817.237 627.279 823.277 627.279Z" fill="#0094F9"/>
<path d="M1074.7 767.569C1080.28 765.258 1082.93 758.859 1080.62 753.279C1078.3 747.698 1071.91 745.048 1066.33 747.359C1060.74 749.671 1058.09 756.069 1060.41 761.65C1062.72 767.231 1069.12 769.881 1074.7 767.569Z" fill="#0A8FE8"/>
<path d="M1476.44 721.442C1480.71 717.171 1480.71 710.245 1476.44 705.974C1472.17 701.703 1465.24 701.703 1460.97 705.974C1456.7 710.245 1456.7 717.171 1460.97 721.442C1465.24 725.713 1472.17 725.713 1476.44 721.442Z" fill="#9CD7FF"/>
<path d="M1453.39 95.6215C1459.43 95.6215 1464.33 90.7247 1464.33 84.6841C1464.33 78.6435 1459.43 73.7466 1453.39 73.7466C1447.35 73.7466 1442.45 78.6435 1442.45 84.6841C1442.45 90.7247 1447.35 95.6215 1453.39 95.6215Z" fill="#0A8FE8"/>
<path d="M743.418 700.575C747.646 700.575 751.074 697.147 751.074 692.919C751.074 688.691 747.646 685.263 743.418 685.263C739.189 685.263 735.762 688.691 735.762 692.919C735.762 697.147 739.189 700.575 743.418 700.575Z" fill="#0A8FE8"/>
<path d="M700.752 490.535C706.793 490.535 711.689 485.638 711.689 479.598C711.689 473.557 706.793 468.66 700.752 468.66C694.711 468.66 689.814 473.557 689.814 479.598C689.814 485.638 694.711 490.535 700.752 490.535Z" fill="#0A8FE8"/>
<path d="M810.91 462.388C812.297 456.509 808.656 450.618 802.777 449.231C796.898 447.843 791.007 451.484 789.62 457.363C788.232 463.242 791.873 469.133 797.752 470.521C803.631 471.908 809.522 468.267 810.91 462.388Z" fill="#0094F9"/>
<path d="M865.837 425.59C866.805 419.627 862.756 414.009 856.793 413.041C850.831 412.073 845.213 416.122 844.245 422.085C843.277 428.047 847.326 433.665 853.288 434.633C859.251 435.601 864.869 431.552 865.837 425.59Z" fill="#0A8FE8"/>
<path d="M919.541 534.295C925.582 534.295 930.478 529.398 930.478 523.358C930.478 517.317 925.582 512.42 919.541 512.42C913.5 512.42 908.604 517.317 908.604 523.358C908.604 529.398 913.5 534.295 919.541 534.295Z" fill="#0A8FE8"/>
<path d="M956.74 465.379C962.781 465.379 967.678 460.482 967.678 454.442C967.678 448.401 962.781 443.504 956.74 443.504C950.7 443.504 945.803 448.401 945.803 454.442C945.803 460.482 950.7 465.379 956.74 465.379Z" fill="#0A8FE8"/>
<path d="M965.488 482.879C968.509 482.879 970.957 480.431 970.957 477.411C970.957 474.39 968.509 471.942 965.488 471.942C962.468 471.942 960.02 474.39 960.02 477.411C960.02 480.431 962.468 482.879 965.488 482.879Z" fill="#0094F9"/>
<path d="M985.153 467.383C985.637 464.401 983.612 461.592 980.631 461.108C977.65 460.624 974.841 462.649 974.357 465.63C973.873 468.612 975.897 471.421 978.879 471.905C981.86 472.388 984.669 470.364 985.153 467.383Z" fill="#0A8FE8"/>
<path d="M1018.32 437.532C1021.67 436.145 1023.26 432.306 1021.87 428.958C1020.48 425.609 1016.65 424.019 1013.3 425.406C1009.95 426.793 1008.36 430.632 1009.75 433.98C1011.13 437.329 1014.97 438.919 1018.32 437.532Z" fill="#0A8FE8"/>
<path d="M606.672 416.151C612.712 416.151 617.609 411.254 617.609 405.213C617.609 399.173 612.712 394.276 606.672 394.276C600.631 394.276 595.734 399.173 595.734 405.213C595.734 411.254 600.631 416.151 606.672 416.151Z" fill="#0A8FE8"/>
<path d="M769.672 588.993C772.692 588.993 775.141 586.544 775.141 583.524C775.141 580.504 772.692 578.055 769.672 578.055C766.652 578.055 764.203 580.504 764.203 583.524C764.203 586.544 766.652 588.993 769.672 588.993Z" fill="#0A8FE8"/>
<path d="M811.238 534.295C814.259 534.295 816.707 531.847 816.707 528.827C816.707 525.806 814.259 523.358 811.238 523.358C808.218 523.358 805.77 525.806 805.77 528.827C805.77 531.847 808.218 534.295 811.238 534.295Z" fill="#0A8FE8"/>
<path d="M788.179 597.328C790.97 596.172 792.295 592.973 791.139 590.182C789.983 587.392 786.784 586.067 783.994 587.223C781.203 588.378 779.878 591.577 781.034 594.368C782.19 597.158 785.389 598.483 788.179 597.328Z" fill="#0A8FE8"/>
<path d="M777.295 628.2C777.779 625.218 775.755 622.409 772.774 621.925C769.792 621.441 766.983 623.466 766.499 626.447C766.015 629.428 768.04 632.238 771.021 632.721C774.002 633.205 776.812 631.181 777.295 628.2Z" fill="#0A8FE8"/>
<path d="M764.79 631.151C766.926 629.015 766.926 625.553 764.79 623.417C762.655 621.282 759.192 621.282 757.056 623.417C754.921 625.553 754.921 629.015 757.056 631.151C759.192 633.287 762.655 633.287 764.79 631.151Z" fill="#0094F9"/>
<path d="M718.843 556.764C720.979 554.628 720.979 551.166 718.843 549.03C716.707 546.894 713.245 546.894 711.109 549.03C708.973 551.166 708.973 554.628 711.109 556.764C713.245 558.9 716.707 558.9 718.843 556.764Z" fill="#0094F9"/>
<path d="M708.41 440.218C711.43 440.218 713.879 437.769 713.879 434.749C713.879 431.729 711.43 429.28 708.41 429.28C705.39 429.28 702.941 431.729 702.941 434.749C702.941 437.769 705.39 440.218 708.41 440.218Z" fill="#0094F9"/>
<path d="M486.338 424.9C489.358 424.9 491.807 422.452 491.807 419.432C491.807 416.411 489.358 413.963 486.338 413.963C483.318 413.963 480.869 416.411 480.869 419.432C480.869 422.452 483.318 424.9 486.338 424.9Z" fill="#0A8FE8"/>
<path d="M490.715 413.963C493.735 413.963 496.184 411.515 496.184 408.495C496.184 405.474 493.735 403.026 490.715 403.026C487.695 403.026 485.246 405.474 485.246 408.495C485.246 411.515 487.695 413.963 490.715 413.963Z" fill="#0094F9"/>
<path d="M504.889 385.332C505.373 382.351 503.349 379.542 500.367 379.058C497.386 378.574 494.577 380.599 494.093 383.58C493.609 386.561 495.634 389.37 498.615 389.854C501.596 390.338 504.405 388.314 504.889 385.332Z" fill="#0A8FE8"/>
<path d="M503.84 378.958C506.86 378.958 509.309 376.51 509.309 373.489C509.309 370.469 506.86 368.021 503.84 368.021C500.82 368.021 498.371 370.469 498.371 373.489C498.371 376.51 500.82 378.958 503.84 378.958Z" fill="#0A8FE8"/>
<path d="M506.027 370.203C509.048 370.203 511.496 367.755 511.496 364.734C511.496 361.714 509.048 359.266 506.027 359.266C503.007 359.266 500.559 361.714 500.559 364.734C500.559 367.755 503.007 370.203 506.027 370.203Z" fill="#0A8FE8"/>
<path d="M212.854 213.771C215.875 213.771 218.323 211.323 218.323 208.302C218.323 205.282 215.875 202.833 212.854 202.833C209.834 202.833 207.386 205.282 207.386 208.302C207.386 211.323 209.834 213.771 212.854 213.771Z" fill="#0A8FE8"/>
<path d="M603.391 378.958C606.411 378.958 608.859 376.51 608.859 373.489C608.859 370.469 606.411 368.021 603.391 368.021C600.37 368.021 597.922 370.469 597.922 373.489C597.922 376.51 600.37 378.958 603.391 378.958Z" fill="#0A8FE8"/>
<path d="M605.486 352.286C608.276 351.13 609.602 347.931 608.446 345.14C607.29 342.35 604.091 341.025 601.301 342.181C598.51 343.336 597.185 346.535 598.341 349.326C599.497 352.116 602.696 353.441 605.486 352.286Z" fill="#0094F9"/>
<path d="M654.807 373.483C657.827 373.483 660.275 371.035 660.275 368.015C660.275 364.994 657.827 362.546 654.807 362.546C651.786 362.546 649.338 364.994 649.338 368.015C649.338 371.035 651.786 373.483 654.807 373.483Z" fill="#0A8FE8"/>
<path d="M720.443 369.109C723.464 369.109 725.912 366.66 725.912 363.64C725.912 360.62 723.464 358.171 720.443 358.171C717.423 358.171 714.975 360.62 714.975 363.64C714.975 366.66 717.423 369.109 720.443 369.109Z" fill="#0A8FE8"/>
<path d="M769.672 296.912C772.692 296.912 775.141 294.463 775.141 291.443C775.141 288.423 772.692 285.974 769.672 285.974C766.652 285.974 764.203 288.423 764.203 291.443C764.203 294.463 766.652 296.912 769.672 296.912Z" fill="#0A8FE8"/>
<path d="M925.593 307.344C927.729 305.208 927.729 301.746 925.593 299.61C923.457 297.474 919.995 297.474 917.859 299.61C915.723 301.746 915.723 305.208 917.859 307.344C919.995 309.48 923.457 309.48 925.593 307.344Z" fill="#0A8FE8"/>
<path d="M901.949 349.004C904.739 347.848 906.064 344.649 904.909 341.859C903.753 339.068 900.554 337.743 897.763 338.899C894.973 340.055 893.648 343.254 894.804 346.044C895.96 348.835 899.159 350.16 901.949 349.004Z" fill="#0A8FE8"/>
<path d="M961.115 296.912C964.136 296.912 966.584 294.463 966.584 291.443C966.584 288.423 964.136 285.974 961.115 285.974C958.095 285.974 955.646 288.423 955.646 291.443C955.646 294.463 958.095 296.912 961.115 296.912Z" fill="#9CD7FF"/>
<path d="M711.691 296.912C714.712 296.912 717.16 294.463 717.16 291.443C717.16 288.423 714.712 285.974 711.691 285.974C708.671 285.974 706.223 288.423 706.223 291.443C706.223 294.463 708.671 296.912 711.691 296.912Z" fill="#0A8FE8"/>
<path d="M751.076 282.687C754.096 282.687 756.545 280.239 756.545 277.219C756.545 274.198 754.096 271.75 751.076 271.75C748.056 271.75 745.607 274.198 745.607 277.219C745.607 280.239 748.056 282.687 751.076 282.687Z" fill="#0A8FE8"/>
<path d="M877.977 176.573C880.997 176.573 883.445 174.125 883.445 171.104C883.445 168.084 880.997 165.636 877.977 165.636C874.956 165.636 872.508 168.084 872.508 171.104C872.508 174.125 874.956 176.573 877.977 176.573Z" fill="#0094F9"/>
<path d="M751.076 364.734C754.096 364.734 756.545 362.285 756.545 359.265C756.545 356.245 754.096 353.796 751.076 353.796C748.056 353.796 745.607 356.245 745.607 359.265C745.607 362.285 748.056 364.734 751.076 364.734Z" fill="#0094F9"/>
<path d="M812.338 358.171C815.358 358.171 817.807 355.723 817.807 352.703C817.807 349.682 815.358 347.234 812.338 347.234C809.318 347.234 806.869 349.682 806.869 352.703C806.869 355.723 809.318 358.171 812.338 358.171Z" fill="#0A8FE8"/>
<path d="M823.275 358.171C826.296 358.171 828.744 355.723 828.744 352.703C828.744 349.682 826.296 347.234 823.275 347.234C820.255 347.234 817.807 349.682 817.807 352.703C817.807 355.723 820.255 358.171 823.275 358.171Z" fill="#0A8FE8"/>
<path d="M834.213 357.077C837.233 357.077 839.682 354.629 839.682 351.608C839.682 348.588 837.233 346.14 834.213 346.14C831.193 346.14 828.744 348.588 828.744 351.608C828.744 354.629 831.193 357.077 834.213 357.077Z" fill="#0094F9"/>
<path d="M789.365 165.636C792.386 165.636 794.834 163.188 794.834 160.167C794.834 157.147 792.386 154.699 789.365 154.699C786.345 154.699 783.896 157.147 783.896 160.167C783.896 163.188 786.345 165.636 789.365 165.636Z" fill="#0A8FE8"/>
<path d="M1034.41 151.412C1037.43 151.412 1039.88 148.964 1039.88 145.943C1039.88 142.923 1037.43 140.475 1034.41 140.475C1031.39 140.475 1028.94 142.923 1028.94 145.943C1028.94 148.964 1031.39 151.412 1034.41 151.412Z" fill="#9CD7FF"/>
<path d="M1084.73 302.38C1087.75 302.38 1090.2 299.931 1090.2 296.911C1090.2 293.891 1087.75 291.442 1084.73 291.442C1081.71 291.442 1079.26 293.891 1079.26 296.911C1079.26 299.931 1081.71 302.38 1084.73 302.38Z" fill="#0A8FE8"/>
<path d="M1077.07 320.974C1080.09 320.974 1082.54 318.525 1082.54 315.505C1082.54 312.485 1080.09 310.036 1077.07 310.036C1074.05 310.036 1071.6 312.485 1071.6 315.505C1071.6 318.525 1074.05 320.974 1077.07 320.974Z" fill="#0A8FE8"/>
<path d="M1079.26 374.578C1082.28 374.578 1084.72 372.129 1084.72 369.109C1084.72 366.089 1082.28 363.64 1079.26 363.64C1076.24 363.64 1073.79 366.089 1073.79 369.109C1073.79 372.129 1076.24 374.578 1079.26 374.578Z" fill="#0A8FE8"/>
<path d="M1033.32 320.974C1036.34 320.974 1038.79 318.525 1038.79 315.505C1038.79 312.485 1036.34 310.036 1033.32 310.036C1030.3 310.036 1027.85 312.485 1027.85 315.505C1027.85 318.525 1030.3 320.974 1033.32 320.974Z" fill="#9CD7FF"/>
<path d="M1040.97 337.385C1043.99 337.385 1046.44 334.937 1046.44 331.916C1046.44 328.896 1043.99 326.448 1040.97 326.448C1037.95 326.448 1035.5 328.896 1035.5 331.916C1035.5 334.937 1037.95 337.385 1040.97 337.385Z" fill="#0A8FE8"/>
<path d="M1004.87 354.89C1007.89 354.89 1010.34 352.441 1010.34 349.421C1010.34 346.401 1007.89 343.952 1004.87 343.952C1001.85 343.952 999.402 346.401 999.402 349.421C999.402 352.441 1001.85 354.89 1004.87 354.89Z" fill="#0A8FE8"/>
<path d="M989.555 362.546C992.575 362.546 995.023 360.098 995.023 357.078C995.023 354.057 992.575 351.609 989.555 351.609C986.534 351.609 984.086 354.057 984.086 357.078C984.086 360.098 986.534 362.546 989.555 362.546Z" fill="#0A8FE8"/>
<path d="M894.381 407.4C897.401 407.4 899.85 404.951 899.85 401.931C899.85 398.911 897.401 396.462 894.381 396.462C891.361 396.462 888.912 398.911 888.912 401.931C888.912 404.951 891.361 407.4 894.381 407.4Z" fill="#0A8FE8"/>
<path d="M961.115 376.77C964.136 376.77 966.584 374.322 966.584 371.302C966.584 368.281 964.136 365.833 961.115 365.833C958.095 365.833 955.646 368.281 955.646 371.302C955.646 374.322 958.095 376.77 961.115 376.77Z" fill="#0A8FE8"/>
<path d="M923.92 462.098C926.94 462.098 929.389 459.65 929.389 456.629C929.389 453.609 926.94 451.161 923.92 451.161C920.9 451.161 918.451 453.609 918.451 456.629C918.451 459.65 920.9 462.098 923.92 462.098Z" fill="#0A8FE8"/>
<path d="M1062.76 514.191C1065.55 513.035 1066.88 509.836 1065.72 507.046C1064.56 504.255 1061.36 502.93 1058.57 504.086C1055.78 505.242 1054.46 508.441 1055.61 511.231C1056.77 514.022 1059.97 515.347 1062.76 514.191Z" fill="#0A8FE8"/>
<path d="M1075.98 520.077C1079 520.077 1081.45 517.629 1081.45 514.608C1081.45 511.588 1079 509.14 1075.98 509.14C1072.96 509.14 1070.51 511.588 1070.51 514.608C1070.51 517.629 1072.96 520.077 1075.98 520.077Z" fill="#0A8FE8"/>
<path d="M1075.98 534.295C1079 534.295 1081.45 531.847 1081.45 528.827C1081.45 525.806 1079 523.358 1075.98 523.358C1072.96 523.358 1070.51 525.806 1070.51 528.827C1070.51 531.847 1072.96 534.295 1075.98 534.295Z" fill="#0094F9"/>
<path d="M1060.66 526.639C1063.68 526.639 1066.13 524.19 1066.13 521.17C1066.13 518.15 1063.68 515.701 1060.66 515.701C1057.64 515.701 1055.2 518.15 1055.2 521.17C1055.2 524.19 1057.64 526.639 1060.66 526.639Z" fill="#0A8FE8"/>
<path d="M1124.11 544.144C1127.13 544.144 1129.58 541.696 1129.58 538.675C1129.58 535.655 1127.13 533.207 1124.11 533.207C1121.09 533.207 1118.64 535.655 1118.64 538.675C1118.64 541.696 1121.09 544.144 1124.11 544.144Z" fill="#9CD7FF"/>
<path d="M1122.92 554.662C1125.71 553.506 1127.04 550.307 1125.88 547.516C1124.73 544.726 1121.53 543.401 1118.74 544.557C1115.95 545.712 1114.62 548.911 1115.78 551.702C1116.93 554.492 1120.13 555.817 1122.92 554.662Z" fill="#0A8FE8"/>
<path d="M1141.52 475.901C1144.31 474.745 1145.64 471.546 1144.48 468.756C1143.33 465.966 1140.13 464.641 1137.34 465.796C1134.55 466.952 1133.22 470.151 1134.38 472.942C1135.53 475.732 1138.73 477.057 1141.52 475.901Z" fill="#0094F9"/>
<path d="M1143.8 462.098C1146.82 462.098 1149.27 459.65 1149.27 456.629C1149.27 453.609 1146.82 451.161 1143.8 451.161C1140.78 451.161 1138.33 453.609 1138.33 456.629C1138.33 459.65 1140.78 462.098 1143.8 462.098Z" fill="#0A8FE8"/>
<path d="M1083.53 410.2C1086.32 409.044 1087.65 405.845 1086.49 403.055C1085.33 400.264 1082.14 398.939 1079.35 400.095C1076.56 401.251 1075.23 404.45 1076.39 407.24C1077.54 410.031 1080.74 411.356 1083.53 410.2Z" fill="#0A8FE8"/>
<path d="M1103.32 382.24C1106.34 382.24 1108.79 379.791 1108.79 376.771C1108.79 373.751 1106.34 371.302 1103.32 371.302C1100.3 371.302 1097.86 373.751 1097.86 376.771C1097.86 379.791 1100.3 382.24 1103.32 382.24Z" fill="#0A8FE8"/>
<path d="M1160.21 397.552C1163.23 397.552 1165.68 395.103 1165.68 392.083C1165.68 389.063 1163.23 386.614 1160.21 386.614C1157.19 386.614 1154.74 389.063 1154.74 392.083C1154.74 395.103 1157.19 397.552 1160.21 397.552Z" fill="#0A8FE8"/>
<path d="M1299.73 432.053C1301.86 429.917 1301.86 426.455 1299.73 424.319C1297.59 422.183 1294.13 422.183 1291.99 424.319C1289.86 426.455 1289.86 429.917 1291.99 432.053C1294.13 434.189 1297.59 434.189 1299.73 432.053Z" fill="#9CD7FF"/>
<path d="M1393.22 461.004C1396.24 461.004 1398.69 458.555 1398.69 455.535C1398.69 452.515 1396.24 450.066 1393.22 450.066C1390.2 450.066 1387.75 452.515 1387.75 455.535C1387.75 458.555 1390.2 461.004 1393.22 461.004Z" fill="#0A8FE8"/>
<path d="M877.977 464.286C880.997 464.286 883.445 461.837 883.445 458.817C883.445 455.797 880.997 453.348 877.977 453.348C874.956 453.348 872.508 455.797 872.508 458.817C872.508 461.837 874.956 464.286 877.977 464.286Z" fill="#0A8FE8"/>
<path d="M839.687 465.379C842.708 465.379 845.156 462.93 845.156 459.91C845.156 456.89 842.708 454.441 839.687 454.441C836.667 454.441 834.219 456.89 834.219 459.91C834.219 462.93 836.667 465.379 839.687 465.379Z" fill="#0A8FE8"/>
<path d="M832.025 483.973C835.046 483.973 837.494 481.524 837.494 478.504C837.494 475.484 835.046 473.035 832.025 473.035C829.005 473.035 826.557 475.484 826.557 478.504C826.557 481.524 829.005 483.973 832.025 483.973Z" fill="#0A8FE8"/>
<path d="M961.115 358.171C964.136 358.171 966.584 355.723 966.584 352.703C966.584 349.682 964.136 347.234 961.115 347.234C958.095 347.234 955.646 349.682 955.646 352.703C955.646 355.723 958.095 358.171 961.115 358.171Z" fill="#0A8FE8"/>
<path d="M1050.81 40.9238C1053.83 40.9238 1056.28 38.4754 1056.28 35.4551C1056.28 32.4348 1053.83 29.9863 1050.81 29.9863C1047.79 29.9863 1045.35 32.4348 1045.35 35.4551C1045.35 38.4754 1047.79 40.9238 1050.81 40.9238Z" fill="#0A8FE8"/>
<path d="M1374.62 207.204C1377.65 207.204 1380.09 204.755 1380.09 201.735C1380.09 198.715 1377.65 196.266 1374.62 196.266C1371.6 196.266 1369.16 198.715 1369.16 201.735C1369.16 204.755 1371.6 207.204 1374.62 207.204Z" fill="#0A8FE8"/>
<path d="M1301.12 136.238C1301.82 133.298 1300 130.353 1297.06 129.659C1294.12 128.965 1291.17 130.786 1290.48 133.725C1289.79 136.665 1291.61 139.61 1294.55 140.304C1297.48 140.998 1300.43 139.177 1301.12 136.238Z" fill="#9CD7FF"/>
<path d="M1414 424.9C1417.02 424.9 1419.47 422.452 1419.47 419.432C1419.47 416.411 1417.02 413.963 1414 413.963C1410.98 413.963 1408.54 416.411 1408.54 419.432C1408.54 422.452 1410.98 424.9 1414 424.9Z" fill="#9CD7FF"/>
<path d="M753.26 118.595C756.28 118.595 758.728 116.147 758.728 113.126C758.728 110.106 756.28 107.658 753.26 107.658C750.239 107.658 747.791 110.106 747.791 113.126C747.791 116.147 750.239 118.595 753.26 118.595Z" fill="#0A8FE8"/>
<path d="M601.203 335.198C604.223 335.198 606.672 332.749 606.672 329.729C606.672 326.709 604.223 324.26 601.203 324.26C598.183 324.26 595.734 326.709 595.734 329.729C595.734 332.749 598.183 335.198 601.203 335.198Z" fill="#0A8FE8"/>
<path d="M733.478 637.806C736.269 636.65 737.594 633.451 736.438 630.661C735.282 627.87 732.083 626.545 729.293 627.701C726.502 628.857 725.177 632.056 726.333 634.846C727.489 637.637 730.688 638.962 733.478 637.806Z" fill="#0A8FE8"/>
<path d="M738.707 315.806C740.094 309.927 736.453 304.036 730.574 302.648C724.695 301.261 718.804 304.902 717.417 310.781C716.029 316.66 719.67 322.551 725.549 323.938C731.428 325.326 737.319 321.685 738.707 315.806Z" fill="#0094F9"/>
<path d="M603.066 134.214C604.454 128.335 600.813 122.445 594.934 121.057C589.054 119.669 583.164 123.31 581.776 129.189C580.389 135.069 584.03 140.959 589.909 142.347C595.788 143.735 601.679 140.093 603.066 134.214Z" fill="#0094F9"/>
<path d="M850.625 250.964C856.666 250.964 861.562 246.067 861.562 240.027C861.562 233.986 856.666 229.089 850.625 229.089C844.584 229.089 839.688 233.986 839.688 240.027C839.688 246.067 844.584 250.964 850.625 250.964Z" fill="#0A8FE8"/>
<path d="M957.64 192.152C963.221 189.841 965.871 183.442 963.559 177.862C961.248 172.281 954.85 169.631 949.269 171.942C943.688 174.254 941.038 180.652 943.35 186.233C945.661 191.814 952.059 194.464 957.64 192.152Z" fill="#0A8FE8"/>
<path d="M1179.9 84.6835C1185.94 84.6835 1190.84 79.7867 1190.84 73.7461C1190.84 67.7055 1185.94 62.8086 1179.9 62.8086C1173.86 62.8086 1168.97 67.7055 1168.97 73.7461C1168.97 79.7867 1173.86 84.6835 1179.9 84.6835Z" fill="#0A8FE8"/>
<path d="M1014.72 285.969C1020.76 285.969 1025.65 281.072 1025.65 275.031C1025.65 268.991 1020.76 264.094 1014.72 264.094C1008.68 264.094 1003.78 268.991 1003.78 275.031C1003.78 281.072 1008.68 285.969 1014.72 285.969Z" fill="#0A8FE8"/>
<path d="M825.36 338.069C826.328 332.107 822.279 326.488 816.317 325.52C810.354 324.553 804.736 328.602 803.768 334.564C802.8 340.527 806.849 346.145 812.812 347.113C818.774 348.081 824.393 344.032 825.36 338.069Z" fill="#0A8FE8"/>
<path d="M972.808 338.775C974.196 332.896 970.555 327.006 964.676 325.618C958.797 324.23 952.906 327.871 951.518 333.751C950.131 339.63 953.772 345.52 959.651 346.908C965.53 348.296 971.421 344.654 972.808 338.775Z" fill="#9CD7FF"/>
<path d="M1056.28 373.484C1062.32 373.484 1067.22 368.587 1067.22 362.546C1067.22 356.506 1062.32 351.609 1056.28 351.609C1050.24 351.609 1045.35 356.506 1045.35 362.546C1045.35 368.587 1050.24 373.484 1056.28 373.484Z" fill="#0094F9"/>
<path d="M1062.85 420.524C1067.08 420.524 1070.51 417.097 1070.51 412.868C1070.51 408.64 1067.08 405.212 1062.85 405.212C1058.62 405.212 1055.2 408.64 1055.2 412.868C1055.2 417.097 1058.62 420.524 1062.85 420.524Z" fill="#0A8FE8"/>
<path d="M1196.12 272.009C1201.7 269.697 1204.35 263.299 1202.04 257.719C1199.73 252.138 1193.33 249.488 1187.75 251.799C1182.17 254.111 1179.52 260.509 1181.83 266.09C1184.14 271.671 1190.54 274.321 1196.12 272.009Z" fill="#0A8FE8"/>
</g>
<path d="M-1228.66 767.303C-702.492 767.303 -211.399 639.63 314.771 639.63C840.942 639.63 1332.03 767.303 1858.2 767.303C2384.38 767.303 2875.47 639.63 3401.64 639.63C3927.81 639.63 4418.9 767.303 4945.07 767.303V1079.39H-1228.66V767.303Z" fill="white" fill-opacity="0.3"/>
<path d="M-234.214 772.557C212.988 772.557 630.376 651.031 1077.58 651.031C1524.78 651.031 1942.17 772.557 2389.37 772.557C2836.57 772.557 3253.96 651.031 3701.16 651.031C4148.36 651.031 4565.75 772.557 5012.95 772.557V1069.62H-234.214V772.557Z" fill="white" fill-opacity="0.7"/>
<path d="M-115.421 821.315C323.392 821.315 732.951 706.409 1171.76 706.409C1610.58 706.409 2020.14 821.315 2458.95 821.315C2897.76 821.315 3307.32 706.409 3746.13 706.409C4184.95 706.409 4594.5 821.315 5033.32 821.315V1102.2H-115.421V821.315Z" fill="white" fill-opacity="0.5"/>
<path d="M-471.513 856.758C-9.84796 856.758 421.039 743.743 882.704 743.743C1344.37 743.743 1775.26 856.758 2236.92 856.758C2698.59 856.758 3129.47 743.743 3591.14 743.743C4052.8 743.743 4483.69 856.758 4945.35 856.758V1133.02H-471.513V856.758Z" fill="white"/>
</g>
<defs>
<linearGradient id="paint0_linear_122_4393" x1="756.1" y1="0" x2="756.1" y2="945.125" gradientUnits="userSpaceOnUse">
<stop stop-color="#4DD1FF"/>
<stop offset="1" stop-color="#0285FF"/>
</linearGradient>
<clipPath id="clip0_122_4393">
<rect width="1512.2" height="945.125" fill="white"/>
</clipPath>
</defs>
</svg>
